<svg width="119" height="119" viewBox="0 0 119 119" fill="none" xmlns="http://www.w3.org/2000/svg">
<path d="M32.2292 86.7708H17.3542V101.646" stroke="black" stroke-width="4" stroke-linecap="round" stroke-linejoin="round"/>
<path d="M101.646 101.646H86.7709V86.7708" stroke="black" stroke-width="4" stroke-linecap="round" stroke-linejoin="round"/>
<path d="M86.7709 32.2292H101.646V17.3542" stroke="black" stroke-width="4" stroke-linecap="round" stroke-linejoin="round"/>
<path d="M17.3542 17.3542H32.2292V32.2292" stroke="black" stroke-width="4" stroke-linecap="round" stroke-linejoin="round"/>
<path d="M32.2292 18.0832C18.7866 26.9523 9.91669 42.1902 9.91669 59.5C9.91669 62.0277 10.1058 64.5114 10.4708 66.9375" stroke="black" stroke-width="4" stroke-linecap="round" stroke-linejoin="round"/>
<path d="M66.9373 108.529C64.5112 108.894 62.0275 109.083 59.4998 109.083C42.19 109.083 26.952 100.213 18.0829 86.7708" stroke="black" stroke-width="4" stroke-linecap="round" stroke-linejoin="round"/>
<path d="M108.529 52.0625C108.894 54.4886 109.083 56.9722 109.083 59.5C109.083 76.8098 100.213 92.0477 86.7709 100.917" stroke="black" stroke-width="4" stroke-linecap="round" stroke-linejoin="round"/>
<path d="M52.0625 10.4707C54.4886 10.1058 56.9722 9.91666 59.5 9.91666C76.8098 9.91666 92.0477 18.7866 100.917 32.2292" stroke="black" stroke-width="4" stroke-linecap="round" stroke-linejoin="round"/>
</svg>
